<svg version="1.1" id="Layer_1" xmlns="http://www.w3.org/2000/svg" xmlns:xlink="http://www.w3.org/1999/xlink" x="0px" y="0px"
	 width="100%" viewBox="0 0 1024 976" enable-background="new 0 0 1024 976" xml:space="preserve">
<path fill="#000000" opacity="1.000000" stroke="none" 
	d="
M262.937256,52.982441 
	C279.962280,58.524330 296.670837,63.040848 314.514587,62.911671 
	C330.054779,62.799171 344.377258,58.205498 358.679657,53.314327 
	C413.786560,34.468742 470.385468,25.764683 528.584412,28.158558 
	C562.622253,29.558624 595.992432,35.360363 628.919617,44.136173 
	C649.084351,49.510502 668.775452,56.256226 688.092346,63.945679 
	C712.551575,73.682182 736.030823,71.887238 759.774963,61.609539 
	C781.326294,52.280987 803.501404,44.499313 826.099854,38.029797 
	C842.315063,33.387669 858.400940,32.859440 873.517639,41.596027 
	C887.450378,49.648388 895.470398,62.611931 901.294067,77.138603 
	C914.804871,110.840233 912.877991,144.452576 900.822266,178.063019 
	C897.383057,187.651352 893.381775,196.986694 888.756226,206.029465 
	C882.554749,218.153030 882.656616,229.892731 889.513672,241.713196 
	C902.643555,264.346863 914.898926,287.437988 925.788391,311.250854 
	C943.769165,350.570801 958.175903,391.147064 968.512146,433.122070 
	C974.758118,458.486786 979.111450,484.205627 982.466553,510.135437 
	C987.074463,545.746338 988.101074,581.475891 986.950867,617.269104 
	C986.085693,644.192932 983.925598,671.100891 978.714539,697.560120 
	C973.350525,724.796143 966.414734,751.695984 958.595581,778.349731 
	C957.120728,783.377380 954.261169,787.705994 951.701294,792.173523 
	C938.947083,814.432434 926.334290,836.778259 910.523926,857.108398 
	C889.591431,884.024963 862.998718,903.306946 831.973633,917.193970 
	C796.538330,933.055176 759.868408,944.911438 721.930786,952.755249 
	C685.428040,960.302368 648.296570,964.144714 611.593994,970.480896 
	C585.746033,974.943298 559.828430,974.625610 533.915710,973.933594 
	C516.263977,973.462280 498.601715,974.106750 480.981659,973.161926 
	C445.424957,971.255310 409.928558,968.901184 374.624725,963.688904 
	C325.148621,956.384277 276.391998,945.985657 228.332352,932.253845 
	C185.198654,919.929504 146.930069,899.300659 116.322838,865.825439 
	C91.750755,838.950928 74.815933,807.645935 63.022511,773.405334 
	C51.010723,738.530701 43.218716,702.639282 38.062946,666.186340 
	C34.079117,638.019409 31.874798,609.718506 31.502508,581.205078 
	C30.751543,523.688843 38.966400,467.541992 54.793980,412.359985 
	C72.144836,351.867157 98.632660,295.539825 131.943405,242.307053 
	C137.774612,232.988403 143.646698,223.670181 150.021606,214.723495 
	C157.335419,204.459106 157.613083,194.675156 150.284668,184.326935 
	C138.246277,167.327942 130.220093,148.513672 128.263870,127.724556 
	C126.069069,104.399780 129.067139,81.825890 142.521088,61.770100 
	C148.031036,53.556423 156.530060,48.686504 164.543961,43.345352 
	C164.818481,43.162395 165.175629,43.098377 165.438446,42.903614 
	C179.543945,32.450241 195.272980,36.338318 210.983490,36.892754 
	C229.886444,37.559860 245.332932,47.743702 262.937256,52.982441 
M859.613586,104.909637 
	C855.437134,83.469238 848.228760,78.994308 828.055969,85.564484 
	C819.191650,88.451553 810.396484,91.561432 801.630371,94.737114 
	C782.232666,101.764267 763.115295,109.504921 742.815247,113.915710 
	C712.542847,120.493301 683.623962,117.510025 655.929382,103.493271 
	C643.846130,97.377716 631.221985,92.742599 618.141113,89.247330 
	C591.273010,82.068024 563.684692,80.133301 536.137024,78.543716 
	C509.553925,77.009789 482.939026,77.190834 456.357605,80.092018 
	C419.851959,84.076363 384.432068,92.125443 351.027618,107.557930 
	C339.623138,112.826668 328.842560,114.526619 316.395935,111.503906 
	C282.939209,103.378784 248.884583,97.613449 216.548538,85.237305 
	C212.336792,83.625313 208.023590,82.392853 203.588608,81.591270 
	C192.963089,79.670815 183.955566,84.333015 179.596710,94.240265 
	C175.089554,104.484566 174.722748,115.172318 176.808075,126.013077 
	C179.984879,142.527832 188.550781,156.296829 199.021423,169.048492 
	C204.095993,175.228592 209.376602,181.213074 212.225891,188.903061 
	C217.366058,202.776047 212.592682,214.291809 203.931747,224.924774 
	C186.436996,246.402924 169.919205,268.562408 156.985458,293.163177 
	C127.862724,348.556335 105.417191,406.402222 92.338722,467.774597 
	C85.801926,498.449402 81.948921,529.455261 80.530518,560.693298 
	C79.542824,582.445740 79.969620,604.274109 82.139946,626.039490 
	C84.301605,647.717957 86.754097,669.321777 91.315857,690.651489 
	C98.112083,722.428955 105.829620,753.909058 120.107933,783.360291 
	C139.589539,823.544006 169.203491,853.540344 210.005402,871.999634 
	C240.336517,885.721863 272.413666,894.172119 304.724335,901.561096 
	C334.083221,908.274902 363.819550,912.837402 393.813690,915.984131 
	C422.621338,919.006348 451.436096,922.121033 480.380157,922.524963 
	C533.329712,923.263977 586.217407,922.149536 638.943054,915.985168 
	C668.063782,912.580444 696.952393,908.156128 725.486084,901.576172 
	C756.030151,894.532593 786.161743,886.125793 813.950256,871.007446 
	C843.801941,854.766602 868.574341,832.846436 886.846558,804.153137 
	C905.702698,774.543152 918.319275,742.210510 926.765686,708.167969 
	C933.969116,679.135132 936.908386,649.506042 938.380432,619.809570 
	C939.971313,587.715942 939.163940,555.549011 935.446533,523.572083 
	C931.486145,489.505646 925.224915,455.884003 915.819336,422.831787 
	C899.896729,366.878082 876.593079,314.220032 846.516907,264.492676 
	C840.740540,254.942139 834.872986,245.443253 829.285828,235.782730 
	C823.836182,226.360062 823.570129,216.815872 829.579346,207.427628 
	C832.183167,203.359543 834.522156,199.086075 837.455811,195.270645 
	C857.917847,168.657776 864.610596,138.682922 859.613586,104.909637 
z"/>
<path fill="#000000" opacity="1.000000" stroke="none" 
	d="
M673.952332,494.244324 
	C663.169128,494.205322 652.764038,493.277557 643.369629,499.075256 
	C639.637207,501.378632 636.233582,503.992157 633.563599,507.458496 
	C629.196533,513.128113 629.363525,517.702759 633.968689,523.197754 
	C638.305725,528.372864 643.950928,531.975586 649.308289,535.912720 
	C653.207703,538.778442 657.085144,541.661621 660.247864,545.354431 
	C665.396362,551.365662 665.789551,559.114441 661.400757,566.214783 
	C656.704468,573.812439 649.259949,577.377319 641.677551,575.597839 
	C640.065918,575.219604 638.379333,574.870911 636.935486,574.112366 
	C619.218811,564.805298 604.044312,552.784180 594.651184,534.538452 
	C583.526184,512.928772 587.294250,491.155060 606.738586,476.593170 
	C627.168396,461.293243 650.441101,453.598480 676.461609,456.725006 
	C680.470886,457.206757 684.260132,458.464294 687.943115,460.002289 
	C696.804932,463.702911 700.336243,469.850098 699.250610,479.378082 
	C698.304382,487.682556 693.522217,492.042023 683.892029,493.648773 
	C680.743713,494.174042 677.609009,494.298431 673.952332,494.244324 
z"/>
<path fill="#000000" opacity="1.000000" stroke="none" 
	d="
M372.599701,467.404724 
	C399.782684,459.639984 425.079285,463.085724 448.469208,478.267731 
	C461.643188,486.818726 466.562897,499.388245 464.314880,514.880005 
	C461.810303,532.139771 456.033081,548.079956 445.377289,562.036804 
	C443.674225,564.267456 441.633514,566.312866 439.468262,568.104736 
	C432.358887,573.988281 422.300598,574.999451 415.735901,570.684082 
	C408.856781,566.161987 405.766052,556.617432 408.250427,547.629089 
	C410.465302,539.615784 415.350006,532.992615 419.543427,526.022095 
	C427.678497,512.499634 424.325226,504.873138 408.855652,502.108459 
	C400.301025,500.579590 391.985016,502.397736 383.667786,504.084961 
	C377.489624,505.338287 371.419159,507.224792 365.025940,507.219818 
	C357.153198,507.213715 351.748138,503.341949 348.530457,496.391693 
	C345.639008,490.146088 348.631195,485.119690 352.417969,480.414520 
	C357.608063,473.965729 364.540802,470.164459 372.599701,467.404724 
z"/>
<path fill="#000000" opacity="1.000000" stroke="none" 
	d="
M578.300293,322.908447 
	C578.833435,336.149658 572.339661,345.783142 561.692627,348.524231 
	C556.833313,349.775299 552.839355,347.804596 548.830078,345.886566 
	C540.550781,341.925751 532.195740,338.414337 522.989197,337.067474 
	C506.429596,334.644836 491.694397,339.194122 478.051178,348.219116 
	C468.823486,354.323242 464.226074,354.379791 457.003632,348.199432 
	C449.088928,341.426697 446.386475,331.800232 450.090546,323.610931 
	C451.698456,320.056061 453.880981,316.786987 457.021820,314.580109 
	C468.686523,306.383972 477.755585,295.398163 488.254547,285.957031 
	C499.169647,276.141754 507.363708,274.649109 520.520386,281.085175 
	C534.603088,287.974304 547.056946,297.637634 560.727112,305.253174 
	C563.488464,306.791473 566.267334,308.326233 568.882324,310.093109 
	C573.397827,313.144043 577.049316,316.934204 578.300293,322.908447 
z"/>
<path fill="#000000" opacity="1.000000" stroke="none" 
	d="
M295.698486,279.676514 
	C295.034943,257.616699 306.795563,243.794754 322.370880,239.524353 
	C338.361938,235.139969 354.278564,240.805435 363.061218,254.283859 
	C372.213806,268.330017 371.879272,285.728027 361.286163,297.934998 
	C351.289307,309.454926 338.054565,313.905487 323.386871,309.788727 
	C308.651978,305.653046 298.605438,295.925171 295.698486,279.676514 
z"/>
<path fill="#000000" opacity="1.000000" stroke="none" 
	d="
M666.503174,298.852875 
	C645.944519,294.446045 638.346313,275.612244 639.800720,259.934113 
	C641.588135,240.665161 655.664490,227.882172 674.706238,227.640564 
	C696.329651,227.366226 713.497437,243.794861 713.265564,264.539978 
	C713.022766,286.271729 692.787598,303.228302 671.343323,299.672455 
	C669.865723,299.427429 668.384399,299.204193 666.503174,298.852875 
z"/>
</svg>